<?xml version="1.0" encoding="utf-8"?>
<!-- Generator: Adobe Illustrator 19.0.0, SVG Export Plug-In . SVG Version: 6.00 Build 0)  -->
<svg version="1.1" id="Capa_1" xmlns="http://www.w3.org/2000/svg" xmlns:xlink="http://www.w3.org/1999/xlink" x="0px" y="0px"
	 viewBox="-255 347 100 100" style="enable-background:new -255 347 100 100;" xml:space="preserve">
<style type="text/css">
	.st0{clip-path:url(#SVGID_2_);}
	.st1{fill:#CCCCCC;}
</style>
<g>
	<g>
		<defs>
			<rect id="SVGID_1_" x="-255" y="347" width="100" height="100"/>
		</defs>
		<clipPath id="SVGID_2_">
			<use xlink:href="#SVGID_1_"  style="overflow:visible;"/>
		</clipPath>
		<g class="st0">
			<path class="st1" d="M-159.9,359.2c-7.9-5.2-13.9-1.6-15.5-1.1c-1.3,0.7-2.6,1.4-3.8,2.3l1-0.7c-0.7-1.9-0.4-4,0.7-5.6
				c0.1-0.2,0.2-0.3,0.2-0.6c1-2.1,0.1-4.6-2.1-5.5c-1.4-0.6-3.1-0.5-4.4,0.4c-1.8-1.5-4.6-1.2-6.1,0.6c-0.9,1.1-1.2,2.5-0.8,3.9
				c-2,1.3-2.4,3.9-1.1,5.8c0.7,1,1.9,1.6,3.1,1.8h0.1c0.3,0,0.7,0,1,0c1.5,0,4.3,0.2,5.8,1.6c-3.6,2.4-8.5,5.6-13.8,9.2
				c-0.7-1.8-0.4-3.9,0.8-5.5c0.1-0.2,0.2-0.3,0.2-0.6c1-2.1,0-4.6-2.1-5.5c-1.4-0.6-3-0.5-4.3,0.4c-1.8-1.5-4.6-1.2-6.1,0.6
				c-0.9,1.1-1.2,2.5-0.8,3.9c-2,1.3-2.4,3.9-1.1,5.8c0.7,1,1.9,1.6,3.1,1.8h0.1c0.3,0,0.7,0,1,0c1.5,0,4.3,0.2,5.7,1.6
				c-4.5,3.1-9.2,6.3-13.7,9.3c-0.7-1.9-0.4-3.9,0.8-5.5c0.1-0.2,0.2-0.3,0.2-0.6c1-2.1,0.1-4.6-2.1-5.5c-1.4-0.6-3.1-0.5-4.4,0.4
				c-1.8-1.5-4.6-1.2-6.1,0.6c-0.9,1.1-1.2,2.5-0.8,3.8c-2,1.3-2.4,3.9-1.1,5.8c0.7,1,1.9,1.6,3.1,1.8h0.1c0.3,0,0.7,0,1,0
				c1.5,0,4.3,0.2,5.8,1.6l-13.4,9.2c-0.6-1.8-0.3-3.8,0.8-5.4c0.1-0.2,0.2-0.3,0.2-0.6c1-2.1,0.1-4.6-2.1-5.5
				c-1.4-0.6-3.1-0.5-4.4,0.4c-1.8-1.5-4.6-1.2-6.1,0.6c-0.9,1.1-1.2,2.5-0.8,3.8c-2,1.3-2.4,3.9-1.1,5.8c0.7,1,1.9,1.6,3.1,1.8h0.1
				c0.3,0,0.7,0,1,0c1.5,0,4.2,0.2,5.7,1.5l-2.6,1.8c0,0-6.6,3.1-3.4,9.4c5.1,7.4,2.2,11.4,1,12.5l12.6,11l-0.7,0.8l-12.6-11
				l0.4-0.4l-16.6,17c0,1.4,0,2.8,0.1,4.2c6.1-1,12.3-0.4,17.7,2.2c6.4-7,11.6-12.6,14.2-15.4c8.8-9.4,17.7-8.2,20.9-7.4
				c0.7,0.2,1.4-0.1,1.8-0.7c3-4.6,11.8-18.6,13.6-21.7c2.7-4.7,8.8-15.2,11.8-14.4c2.2,0.5,4.5,0.7,6.7,0.6
				c5.6-1.3,10.3-4.9,13-9.8C-155.3,375.6-152,364.4-159.9,359.2z M-222.5,407.5c-1.2,1.4-3.3,1.6-4.8,0.4c-1.4-1.2-1.6-3.2-0.4-4.6
				c1.2-1.4,3.3-1.6,4.8-0.4c0,0,0,0,0,0C-221.5,404.1-221.3,406.1-222.5,407.5z M-203.3,395.6c-1.2,1.4-3.3,1.6-4.8,0.4
				c-1.4-1.2-1.6-3.2-0.4-4.6c1.2-1.4,3.3-1.6,4.8-0.4c0,0,0,0,0,0C-202.3,392.2-202.1,394.3-203.3,395.6z M-186.5,383.9
				c-1.2,1.4-3.3,1.6-4.8,0.4c-1.4-1.2-1.6-3.2-0.4-4.6c1.2-1.4,3.3-1.6,4.8-0.4c0,0,0,0,0,0C-185.5,380.5-185.3,382.5-186.5,383.9z
				 M-169.7,372.1c-1.2,1.4-3.3,1.6-4.8,0.4c-1.4-1.2-1.6-3.2-0.4-4.6c1.2-1.4,3.3-1.6,4.8-0.4c0,0,0,0,0,0
				C-168.7,368.7-168.5,370.7-169.7,372.1z"/>
		</g>
	</g>
</g>
</svg>
