<?xml version="1.0" encoding="utf-8"?>
<!-- Generator: Adobe Illustrator 19.0.0, SVG Export Plug-In . SVG Version: 6.00 Build 0)  -->
<svg version="1.1" id="Capa_1" xmlns="http://www.w3.org/2000/svg" xmlns:xlink="http://www.w3.org/1999/xlink" x="0px" y="0px"
	 viewBox="-429.8 334.3 100 100" style="enable-background:new -429.8 334.3 100 100;" xml:space="preserve">
<style type="text/css">
	.st0{fill:#CCCCCC;}
</style>
<path class="st0" d="M-330.9,402v-0.2c-0.2-2.1-0.8-4.1-1.7-5.9l-11-30c-0.6-2.2-2.4-4-4.6-4.5c-2.7-0.6-5.5,0.2-7.5,2.2
	c-1.6,1.6-2.2,4-1.5,6.2v0.2l-14.9-15c-3.5-3.5-7.8-2.8-10.2-0.4c-0.9,0.9-1.6,2.1-1.9,3.3l-3.6-3.6c-2.7-2.8-7.1-3-10-0.4
	c-1.9,1.6-2.8,4-2.6,6.4c-3.6,0-6.6,2.7-7,6.3l-4.1-3.1c-2-1.6-4.7-2.1-7.1-1.1c-2.5,1.1-4.3,3.4-4.7,6.1c-0.3,2.5,0.8,5,2.8,6.5
	c-1.3,0.4-2.4,1.2-3.2,2.3c-2.1,2.8-2,7.3,2.2,10.5l3.1,2.3c-1.4,0.4-2.6,1.3-3.5,2.5c-1.9,2.7-2,7.3,2.5,10.7l35.5,27
	c7,5.4,16.9,4.8,23.3-1.2c6,1.3,12.2-0.6,16.6-4.9l7.7-7.7c3.7-3.7,5.6-8.8,5.3-14C-330.8,402.5-330.9,402.3-330.9,402z
	 M-403.5,365.5c0.6-1,1.7-1.6,2.9-1.6c0.6,0,1.3,0.2,1.8,0.5l0,0l0.4,0.4c-2.4,0.5-4.4,2.3-5.1,4.7
	C-404.3,368.2-404.3,366.7-403.5,365.5z M-419.9,369.3c0.2-1.5,1.2-2.9,2.7-3.5c1.3-0.5,2.8-0.3,3.8,0.6l8.6,6.5l1.7,1.3
	c0.1,0.1,0.1,0.3,0.2,0.4c0.5,1,1.1,1.9,1.9,2.6l2.7,2.7c-0.7,0.1-1.3,0.3-1.9,0.6c-1.5,0.7-2.6,2-3.2,3.5l-9.3-7.1l-0.2-0.2
	l-5.4-4.1C-419.5,372.1-420.1,370.7-419.9,369.3z M-381.8,427.9l-35.5-26.9c-2.8-2.1-2.9-4.6-1.8-6.1c0.7-0.9,1.8-1.5,2.9-1.5
	c1.1,0,2.2,0.4,3.1,1l15.8,12c0.7,0.6,1.7,0.5,2.3-0.2c0.6-0.7,0.5-1.7-0.2-2.3c0,0-0.1,0-0.1-0.1l-15.1-11.5l-0.1-0.1l-0.2-0.2
	l-8.6-6.6c-2.7-2-2.7-4.4-1.6-5.9c1.1-1.5,3.4-2,6-0.1l0.1,0.1l11,8.4c0.4,1.9,1.4,3.7,2.8,5l16.5,16.5l10.9,10.9
	c1.9,2.2,4,4.2,6.3,6c0.9,0.7,2,1.3,3,1.8l0.2,0.1C-369.4,432-376.6,431.9-381.8,427.9z M-338.5,414.4l-7.7,7.7
	c-5.8,5.8-15.2,5.8-21,0l-31.4-31.5c-1.1-1-1.7-2.3-1.9-3.7c-0.1-1.4,0.6-2.7,1.9-3.4c1.7-0.7,3.7-0.3,5,1l0,0l14.1,14.1
	c0.7,0.6,1.7,0.6,2.3-0.1c0.6-0.6,0.6-1.6,0-2.3l-21.4-21.4c-0.7-0.6-1.2-1.4-1.5-2.3c-0.6-1.5,0-3.3,1.4-4.2
	c1.2-0.8,3.3-0.9,5.4,1.3c0,0,0,0,0,0.1l21.4,21.4c0.7,0.6,1.7,0.6,2.3-0.1c0.6-0.6,0.6-1.6,0-2.3l-21.3-21.4c0,0,0-0.1-0.1-0.1
	l-4.8-4.8c-0.2-0.2-0.3-0.3-0.5-0.5c-1.3-1.7-1-4.1,0.7-5.3c0,0,0,0,0,0c1.5-1.5,3.9-1.4,5.4,0c0.1,0.1,0.1,0.1,0.1,0.2l26.2,26.2
	c0.8,0.5,1.8,0.2,2.3-0.6c0.3-0.5,0.3-1.2,0-1.7l-18-18c-2.1-2.1-1.7-4.3-0.4-5.6s3.5-1.7,5.6,0.4L-355,377c0.6,0.6,1.7,0.6,2.3,0
	c0.4-0.4,0.6-1,0.4-1.6l-1.8-6.4c-0.4-1.1-0.1-2.2,0.7-3c1.1-1.1,2.7-1.6,4.3-1.3c1.1,0.3,2,1.2,2.3,2.3l11,30.2l0.1,0.2
	c0.8,1.6,1.3,3.3,1.5,5c0,0.1,0,0.1,0,0.2c0,0,0,0.1,0,0.1C-333.9,407-335.4,411.3-338.5,414.4z"/>
<path class="st0" d="M-421.1,338.9c-0.6-0.7-1.6-0.8-2.3-0.2c-0.7,0.6-0.8,1.6-0.2,2.3c0.1,0.1,0.1,0.1,0.2,0.2l11.3,11.2
	c0.7,0.6,1.7,0.6,2.3-0.1c0.6-0.6,0.6-1.6,0-2.3L-421.1,338.9z"/>
<path class="st0" d="M-416.1,358.5c0.9,0,1.7-0.7,1.7-1.6c0-0.8-0.5-1.4-1.2-1.6l-10.5-2.9c-0.9-0.2-1.8,0.3-2,1.2
	c-0.2,0.8,0.3,1.7,1.1,2l10.5,2.9C-416.4,358.4-416.2,358.5-416.1,358.5z"/>
<path class="st0" d="M-405.6,334.3c-0.9,0.1-1.6,0.9-1.5,1.8c0,0,0,0,0,0l0.8,10.3c0.1,0.9,0.8,1.5,1.6,1.5h0.1
	c0.9-0.1,1.6-0.9,1.5-1.8c0,0,0-0.1,0-0.1l-0.8-10.3C-403.9,334.8-404.7,334.2-405.6,334.3z"/>
</svg>
