<?xml version="1.0" encoding="utf-8"?>
<!-- Generator: Adobe Illustrator 19.0.0, SVG Export Plug-In . SVG Version: 6.00 Build 0)  -->
<svg version="1.1" id="Capa_1" xmlns="http://www.w3.org/2000/svg" xmlns:xlink="http://www.w3.org/1999/xlink" x="0px" y="0px"
	 viewBox="-429.8 334.3 100 100" style="enable-background:new -429.8 334.3 100 100;" xml:space="preserve">
<style type="text/css">
	.st0{fill:#CCCCCC;}
</style>
<g>
	<path class="st0" d="M-333.7,376.5c10.3-7.9-4.3-16.2-14.1-16.2c-1.6,0.3-1-1.7-2.2-1.8c-1.8,2.5-7.1-2.6-9.2,0.4
		c-3.1-3.3-5.5-2.8-8.3-1.3c1.7-2.3-4.8-0.6-6.6-0.4c0.9-1-3.4-2-0.9-3.5c-2.4-4.4,2.4-13.4-4-15.4c-0.3,0-0.6,0-0.9,0
		c-1.8,1-1.3,2.1-1.8,4c-0.6-0.1-0.4-1.1-0.4-1.8c-1.6,3.7-0.7,10.8-0.4,16.2c-16-0.4-34.6,2.7-45.2,8.8c-1.1,1.6-1.8,3.5-2.2,5.7
		c0,0.1,0,0.3,0,0.4c0,2.7,3,3,3.1,4.4c0,0.7-3.4,4.1-3.1,5.7c0,0.4,0,0.9,0,1.3c8,12.3,31.6,11.4,48.3,12.3
		c0.3,7.4,0.4,15.2,0.4,23.3c0,4.2-1.4,9.8,1.8,12.7c3.4-1.2,2.2-5.8,2.2-8.8c0-11.6-0.1-18,0.4-28.1c9.6-0.4,19.6-0.3,30.3-2.6
		C-336.6,389.7-323.2,383.8-333.7,376.5z M-381.1,361.5c0.6,3.8-2.2,8.3,3.1,7.5c1.7-1.4,1.7-3.1,1.3-5.7c1.1,0.3,6.7-2.2,8.3,0.9
		c1.8,0.5,1.7-0.9,3.1-0.9c-1.2,1.1,3.1,1.3,3.1-0.4c2.3,2.9,6.6,1.9,10.5,2.2c0.5,1.4,3,0.7,4.8,0c0,3.1,8.6,2.4,11.4,5.3
		c-12.7,9.1-36.1,8.5-56.2,8.8c-9.7,0.1-25.6-2.2-32.9-7.9C-415.9,362.1-397.5,362.8-381.1,361.5z M-364.8,390.1
		c-7,0.5-13.5,1.1-20.2,0.9c-1.7-1.7-5.5-1.2-8.8-1.3c0.8-1.9-3.8,0-5.7-0.4c-2-0.5-2-3.6-4.8-0.9c0.3-0.8,1.3-0.3,0.4-1.3
		c-1.3,1.6-2.3-1.2-3.1,1.3c-3.7-3.5-9.2-3.7-14.5-4c2.5-1.6-1.5-1.3-1.3-3.1c1.9-1.5,4.5-1.3,7.9-0.4c9.6,2.4,20.8,4.3,29,3.1
		c15.4,2.2,32.3-0.9,47.9-5.7c1.9,0.6,2.9,2.1,4.4,3.1C-339.1,387.8-352.4,389.2-364.8,390.1z"/>
</g>
</svg>
