<svg id="Capa_1" xmlns="http://www.w3.org/2000/svg" viewBox="0 0 864 864">
  <style>
    .st0 {
      fill: #808080;
    }
    .st1 {
      fill: #E5E5E5;
    }
    .st2 {
      fill: #107AB3;
    }
    .st3 {
      fill: #11882A;
    }
    .st4 {
      fill: #791FC6;
    }
    .st5 {
      fill: #DF2230;
    }
  </style>
  <g id="XMLID_379_">
    <circle id="XMLID_380_" class="st1" cx="431" cy="432" r="432"/>
    <path id="XMLID_403_" class="st2" d="M99.1 475h140.2c23.6 0 42.7-18.9 42.7-42.5V292.3c0-23.6-19.1-43.3-42.7-43.3H99.1c-6.5 0-12.9 1.8-18.4 4.4-9.7 19-17.7 39.3-24.7 60.1v119c0 23.6 19.5 42.5 43.1 42.5z"/>
    <path id="XMLID_404_" class="st0" d="M545 291.7c0-23.6-19.1-42.7-42.7-42.7H361.7c-23.6 0-42.7 19.1-42.7 42.7v140.7c0 23.6 19.1 42.7 42.7 42.7h140.7c23.6 0 42.7-19.1 42.7-42.7V291.7z"/>
    <path id="XMLID_406_" class="st0" d="M625.3 249c-23.6 0-43.3 19.7-43.3 43.3v140.2c0 23.6 19.7 42.5 43.3 42.5h140.2c23.6 0 42.5-18.9 42.5-42.5V312c-7-20.1-14.4-39.8-23.8-58.3-5.7-2.8-11.9-4.7-18.7-4.7H625.3z"/>
    <path id="XMLID_408_" class="st0" d="M280 693.7V553.5c0-23.6-15.4-38.5-39-38.5H100.8c-22 0-40 16.3-42.4 37.7C82.2 627.4 127.7 693 187.6 740H241c23.6 0 39-22.7 39-46.3z"/>
    <path id="XMLID_409_" class="st3" d="M545 557.7c0-23.6-19.1-42.7-42.7-42.7H361.7c-23.6 0-42.7 19.1-42.7 42.7v140.7c0 23.6 19.1 42.7 42.7 42.7h140.7c23.6 0 42.7-19.1 42.7-42.7V557.7z"/>
    <path id="XMLID_411_" class="st4" d="M808 553.8c-1.8-21.9-20.1-38.8-42.5-38.8H625.3c-23.6 0-43.3 18.9-43.3 42.5v140.2c0 23.6 19.7 42.3 43.3 42.3h53.9c59.6-47 104.9-112 128.8-186.2z"/>
    <path id="XMLID_414_" class="st5" d="M757.4 218c1.2 0 2.4.1 3.6 0-24.2-37.2-54.5-70-89.6-97H191.3c-35.1 27-65.4 59.8-89.6 97.1.9 0 1.8-.1 2.7-.1h653z"/>
  </g>
</svg>
