<?xml version="1.0" encoding="utf-8"?>
<!-- Generator: Adobe Illustrator 19.0.0, SVG Export Plug-In . SVG Version: 6.00 Build 0)  -->
<svg version="1.1" id="Capa_1" xmlns="http://www.w3.org/2000/svg" xmlns:xlink="http://www.w3.org/1999/xlink" x="0px" y="0px"
	 viewBox="-429.8 334.3 100 100" style="enable-background:new -429.8 334.3 100 100;" xml:space="preserve">
<style type="text/css">
	.st0{fill:#CCCCCC;}
</style>
<path class="st0" d="M-331.3,428.3l-5.9-35.5c0.7-2.6,1.1-5.2,1.3-7.9c0.2,0.1,0.4,0.2,0.8,0.2h0.4c0.7,0,1.2-0.6,1.2-1.3v-6.6
	c0-0.7-0.6-1.3-1.2-1.3h-0.4c-0.3,0-0.6,0.1-0.8,0.2c-0.9-9.6-4.6-18.4-10.1-25.3c0.2-0.1,0.3-0.1,0.6-0.3l0.3-0.3
	c0.4-0.5,0.4-1.4,0-1.9l-4.4-4.6c-0.4-0.5-1.3-0.5-1.8,0l-0.3,0.3c-0.1,0.1-0.2,0.3-0.3,0.6c-7.6-6.4-17.2-10.3-27.7-10.3l0,0
	c0,0-1.7,0-2.3,0.1c-9.8,0.5-18.6,4.2-25.7,10.2c-0.1-0.1-0.1-0.3-0.3-0.5l-0.3-0.3c-0.4-0.5-1.3-0.5-1.8,0l-4.4,4.6
	c-0.4,0.5-0.4,1.4,0,1.9l0.3,0.3c0.1,0.1,0.2,0.2,0.3,0.2c-5.7,7-9.2,15.8-10.1,25.3c-0.2-0.1-0.4-0.2-0.7-0.2h-0.4
	c-0.7,0-1.2,0.6-1.2,1.3v6.6c0,0.7,0.6,1.3,1.2,1.3h0.4c0.2,0,0.4-0.1,0.7-0.2c0.2,2.7,0.7,5.3,1.4,7.9l-5.9,35.5
	c-0.9,0.2-1.4,0.8-1.4,1.7v2.2c0,0.9,0.8,1.7,1.7,1.7h1.7c0.9,0,1.7-0.8,1.7-1.7v-2.2c0-0.8-0.4-1.4-1.1-1.6l5.1-30.3
	c1.6,4.2,3.8,7.9,6.3,11.4c-0.1,0.1-0.2,0.1-0.3,0.2l-0.3,0.3c-0.4,0.5-0.4,1.4,0,1.9l4.4,4.6c0.4,0.5,1.3,0.5,1.8,0l0.3-0.3
	c0.1-0.1,0.1-0.2,0.2-0.2c7.8,6.9,17.7,10.9,28.6,10.9c0.7,0,1.4,0,2.1,0c1,0,2.1-0.1,3.1-0.2h0.1c9.4-1.2,17.9-5.3,24.4-11.6
	c0.1,0.1,0.2,0.3,0.3,0.5l0.3,0.3c0.6,0.5,1.3,0.5,1.8-0.1l4.2-4.9c0.4-0.6,0.4-1.4-0.1-1.9l-0.3-0.3c-0.1-0.1-0.3-0.2-0.4-0.2
	c2.2-3.1,4.1-6.5,5.4-10.2l5.1,30.4c-0.7,0.2-1.1,0.8-1.1,1.6v2.2c0,0.9,0.8,1.7,1.7,1.7h1.7c0.9,0,1.7-0.8,1.7-1.7v-2.2
	C-329.8,429.1-330.4,428.6-331.3,428.3z M-380.9,422.9c-1.1,0-2.3-0.1-3.4-0.2v-10h3.4V422.9z M-375.1,422.6
	c-0.9,0.1-1.9,0.2-2.9,0.2c-0.2,0-0.3,0-0.6,0v-10.2h3.3v10H-375.1z M-372.5,422.2v-9.5c0-1.5-1.1-2.7-2.6-2.7h-3.3v-21.6h0.6
	c2.1,0,3.8-1.7,3.8-3.9v-5.1c0-2.2-1.7-3.9-3.8-3.9h-3.9c-2.1,0-3.8,1.7-3.8,3.9v5.1c0,2.2,1.7,3.9,3.8,3.9h0.8V410h-3.4
	c-1.4,0-2.6,1.2-2.6,2.7v9.5c-18.3-3.4-32.4-19.5-33.3-39.6c-0.6-11.3,3.2-22.1,10.4-30.4s17.2-13.2,28-13.8c0.7,0,1.3,0,2,0
	c21.6,0,39.3,17.7,40.4,40.3C-338.4,400-352.9,418.5-372.5,422.2z"/>
</svg>
