<svg id="Capa_1" xmlns="http://www.w3.org/2000/svg" viewBox="0 0 1415.4 352"><style>.st0{fill:#DF2230;} .st1{fill:#107AB3;} .st2{fill:#11882A;} .st3{fill:#791FC6;}</style><g id="XMLID_57_"><g id="XMLID_202_"><g id="XMLID_28_"><path id="XMLID_29_" class="st0" d="M231.3 93c-2.3-2.3-6.4-5.4-12.4-9.3-6-3.9-13.3-7.7-21.9-11.4-8.6-3.7-17.9-6.9-28-9.5-10.1-2.6-20.3-3.9-30.7-3.9-18.5 0-32.3 3.4-41.4 10.2-9.1 6.9-13.6 16.4-13.6 28.8 0 7.1 1.7 13.1 5.1 17.8 3.4 4.7 8.4 8.8 14.9 12.4 6.5 3.6 14.7 6.8 24.6 9.7 9.9 2.9 21.3 6 34.3 9.3 16.9 4.5 32.2 9.4 46 14.6 13.8 5.2 25.5 11.7 35.1 19.5 9.6 7.8 17 17.1 22.2 28 5.2 10.9 7.8 24.3 7.8 40.2 0 18.5-3.5 34.3-10.5 47.5-7 13.1-16.4 23.8-28.2 31.9-11.9 8.1-25.5 14-40.9 17.8-15.4 3.7-31.6 5.6-48.4 5.6-26 0-51.6-3.9-76.9-11.7s-48-18.8-68.2-33.1l29.7-57.9c2.9 2.9 8.2 6.7 15.8 11.4 7.6 4.7 16.6 9.4 27 14.1 10.4 4.7 21.9 8.7 34.6 11.9 12.7 3.2 25.6 4.9 39 4.9 37 0 55.5-11.8 55.5-35.5 0-7.5-2.1-13.8-6.3-19-4.2-5.2-10.2-9.7-18-13.6-7.8-3.9-17.2-7.5-28.2-10.7-11-3.2-23.4-6.8-37-10.7-16.6-4.5-30.9-9.5-43.1-14.9-12.2-5.4-22.3-11.7-30.4-19-8.1-7.3-14.2-15.7-18.3-25.3-4.1-9.6-6.1-21-6.1-34.3 0-17.5 3.2-33.1 9.7-46.7 6.5-13.6 15.5-25 27-34.1C62.6 18.9 76 12 91.3 7.3c15-4.9 31.4-7.3 48.9-7.3 24.3 0 46.7 3.8 67.2 11.4 20.4 7.6 38.3 16.6 53.6 27L231.3 93z"/></g></g><g id="XMLID_76_"><path id="XMLID_22_" class="st1" d="M416.3 2.4h59.4l131.5 345.7H538l-32.1-86.2H385.1l-31.6 86.2h-69.1L416.3 2.4zm77.4 212.3L446 78.9l-49.7 135.8h97.4z"/></g><g id="XMLID_42_"><path id="XMLID_15_" class="st2" d="M927 348.1V119.3l-89.1 170.4h-36.5l-89.1-170.4v228.8h-67.2V2.4h72.1l102.2 196.7L922.6 2.4h71.6v345.7H927z"/></g><g id="XMLID_35_"><path id="XMLID_12_" class="st3" d="M1348.2 348.1V119.3l-89.1 170.4h-36.5l-89.1-170.4v228.8h-67.2V2.4h72.1l102.2 196.7L1343.8 2.4h71.6v345.7h-67.2z"/></g></g></svg>