<?xml version="1.0" encoding="utf-8"?>
<!-- Generator: Adobe Illustrator 19.0.0, SVG Export Plug-In . SVG Version: 6.00 Build 0)  -->
<svg version="1.1" id="Capa_1" xmlns="http://www.w3.org/2000/svg" xmlns:xlink="http://www.w3.org/1999/xlink" x="0px" y="0px"
	 viewBox="-429.8 334.3 100 100" style="enable-background:new -429.8 334.3 100 100;" xml:space="preserve">
<style type="text/css">
	.st0{fill:#CCCCCC;}
</style>
<g>
	<path class="st0" d="M-379.8,434c2.1,0,3.9-1.3,4.6-3.1c5.8-0.6,11.3-2.2,16.5-4.7c0.9,2.2,1.8,4.4,2.7,6.7
		c1.1-0.1,2.2-0.1,3.3-0.1c-1.1-2.7-2.2-5.4-3.3-8c-0.2-0.5-0.4-1-0.6-1.5c-0.2-0.5-0.4-1-0.6-1.4c-0.4-1-0.8-2.1-1.2-3.1
		c-0.2-0.5-0.4-1-0.6-1.5c-0.2-0.5-0.4-1-0.6-1.5c-4-10.3-7.2-19.2-8.9-25c2.9,5.3,6.8,13.6,11.2,23.5c0.2,0.5,0.4,1,0.6,1.4
		c0.2,0.5,0.4,1,0.6,1.4c0.4,1,0.9,2,1.3,3.1c0.2,0.5,0.4,1,0.6,1.4c0.2,0.5,0.4,1,0.6,1.5c1.3,3,2.6,6.1,3.9,9.3
		c0.1,0.1,0.1,0.2,0.2,0.4c1.1,0,2.3,0.1,3.4,0.1c-0.2-0.5-0.5-1.1-0.7-1.7c-1.4-3.4-2.8-6.7-4.2-10c0.3-0.3,0.7-0.5,1-0.8
		c1.8,0.8,4,0.5,5.5-1c1.5-1.5,1.8-3.6,1-5.4c6.1-7.4,9.6-16.2,10.5-25.2c1.8-0.7,3.2-2.5,3.2-4.6c0-2.1-1.3-3.9-3.2-4.6
		c-0.9-9-4.4-17.8-10.5-25.2c0.8-1.8,0.5-4-1-5.4c-1.5-1.5-3.7-1.8-5.5-1c-7.2-5.9-16-9.6-25.3-10.5c-0.7-1.8-2.5-3.1-4.6-3.1
		c-2.1,0-3.9,1.3-4.6,3.1c-9.3,0.9-18.1,4.5-25.3,10.5c-1.8-0.8-4-0.5-5.5,1c-1.5,1.5-1.8,3.6-1,5.4c-6,7.2-9.6,15.9-10.5,25.2
		c-1.8,0.7-3.1,2.5-3.1,4.6c0,2.1,1.3,3.9,3.1,4.6c0.9,9.3,4.5,18,10.5,25.2c-0.8,1.8-0.5,4,1,5.4c1.5,1.5,3.7,1.8,5.5,1
		c0.2,0.2,0.4,0.3,0.7,0.5c-1.7,4-3.5,8.2-5.2,12.5c1.1,0,2.3-0.1,3.4-0.1c1.5-3.6,3-7.1,4.4-10.5c0.2-0.5,0.4-1,0.6-1.5
		c0.2-0.5,0.4-1,0.6-1.4c0.5-1,0.9-2.1,1.3-3.1c0.2-0.5,0.4-1,0.6-1.5c0.2-0.5,0.4-1,0.6-1.5c3.6-8.1,6.8-14.8,9.2-19.4
		c-1.5,5-4,12.3-7.2,20.8c-0.2,0.5-0.4,1-0.6,1.5c-0.2,0.5-0.4,1-0.6,1.5c-0.4,1-0.8,2.1-1.2,3.1c-0.2,0.5-0.4,1-0.6,1.5
		c-0.2,0.5-0.4,1-0.6,1.5c-1.1,2.9-2.3,5.9-3.5,8.9c1.1,0,2.2,0,3.3,0.1c1-2.5,2-5.1,3-7.5c5.2,2.7,11,4.4,16.9,4.9
		C-383.7,432.7-381.9,434-379.8,434z M-406.8,415.7c-0.3,0.8-0.7,1.5-1,2.3c-1.1-0.9-2.1-1.8-3.1-2.8c-1.1-1.1-2.2-2.3-3.2-3.5
		c-5.3-6.6-8.6-14.4-9.5-22.8c-0.2-1.6-0.3-3.1-0.3-4.7c0-1.6,0.1-3.2,0.3-4.7c0.9-8.4,4.2-16.2,9.5-22.8c1-1.2,2-2.4,3.2-3.5
		c1.1-1.1,2.3-2.2,3.5-3.1c6.6-5.3,14.5-8.6,22.9-9.4c1.6-0.2,3.1-0.3,4.7-0.3c1.6,0,3.2,0.1,4.7,0.3c8.4,0.9,16.3,4.1,22.9,9.4
		c1.2,1,2.4,2,3.5,3.1c1.1,1.1,2.2,2.3,3.2,3.5c5.4,6.7,8.6,14.7,9.4,22.8c0.3,3.1,0.3,6.3,0,9.4c-0.9,8.1-4,16.1-9.4,22.8
		c-1,1.2-2,2.4-3.2,3.5c-1.1,1.1-2.3,2.1-3.4,3.1c-0.2-0.5-0.4-1-0.6-1.4c-0.2-0.6-0.5-1.1-0.7-1.7c0.3-0.3,0.6-0.5,0.9-0.8
		c0.5-0.5,1-1,1.6-1.5c0.5-0.5,1-1,1.5-1.5c6.5-7.1,9.9-16,10.4-25.1c0.1-1.4,0.1-2.8,0-4.2c-0.5-9-3.9-17.9-10.4-25.1
		c-0.5-0.5-1-1-1.5-1.5c-0.5-0.5-1-1-1.5-1.5c-7-6.3-15.7-9.9-25.1-10.4c-0.7,0-1.4-0.1-2.1-0.1c-0.7,0-1.4,0-2.1,0.1
		c-9.4,0.5-18.1,4.1-25.1,10.4c-0.5,0.5-1,1-1.5,1.5c-0.5,0.5-1,1-1.5,1.5c-6.3,6.9-9.9,15.7-10.4,25c0,0.7-0.1,1.4-0.1,2.1
		c0,0.7,0,1.4,0.1,2.1c0.5,9.3,4.1,18.1,10.4,25c0.5,0.5,1,1,1.5,1.5c0.5,0.5,1,1,1.5,1.5c0.2,0.2,0.4,0.4,0.6,0.6
		C-406.6,415.1-406.7,415.4-406.8,415.7z M-390.2,394.8c1.5-0.7,2.9-2.1,3.7-4c0.6-1.5,0.8-3.1,0.5-4.5c-0.3-1.6-1.3-2.8-2.6-3.3
		c-0.5-0.2-1-0.3-1.5-0.3c-2.2,0-4.4,1.8-5.5,4.4c-0.8,1.9-0.8,3.8-0.2,5.4c-2.4,4.4-5.7,11.2-9.3,19.3c-0.4-0.4-0.9-0.8-1.3-1.3
		c-7.1-7.1-11-16.5-11-26.5c0-10,3.9-19.4,11-26.5c7.1-7.1,16.5-11,26.6-11c10,0,19.5,3.9,26.6,11c14.7,14.6,14.7,38.4,0,53
		c-0.5,0.5-1.1,1-1.6,1.5c-4.4-10-8.4-18.3-11.3-23.5c0.6-1.5,0.6-3.5-0.2-5.4c-1.1-2.6-3.3-4.4-5.5-4.4c-0.5,0-1,0.1-1.5,0.3
		c-1.3,0.5-2.2,1.7-2.6,3.3c-0.3,1.4-0.1,3,0.5,4.5c0.8,1.9,2.1,3.3,3.7,4c1.8,6,5.1,15.4,9.4,26.3c-5.3,2.8-11.3,4.3-17.5,4.3
		c-6.4,0-12.6-1.6-18.1-4.6C-394.4,407.8-391.7,400-390.2,394.8z M-392.8,388.3c0.7-1.6,1.8-2.5,2.6-2.5c0.1,0,0.2,0,0.3,0.1
		c0.5,0.2,0.7,0.8,0.7,1.1c0.2,0.8,0.1,1.7-0.3,2.6c-0.6,1.5-1.6,2.3-2.4,2.4l-0.6,0.1l-0.4-0.5
		C-393.2,391.1-393.4,389.8-392.8,388.3z M-369.2,387.8l-0.3,0.5l-0.6-0.1c-0.7-0.1-1.8-0.9-2.4-2.4c-0.4-0.9-0.5-1.9-0.3-2.6
		c0.1-0.3,0.2-0.9,0.7-1.1c0.1,0,0.2-0.1,0.3-0.1c0.8,0,1.9,0.9,2.6,2.4C-368.6,385.9-368.7,387.2-369.2,387.8z M-400.2,423
		c0.4-1,0.8-2.1,1.2-3.1c5.2,2.8,11,4.4,17,4.7c0.7,0,1.4,0.1,2.1,0.1c0.7,0,1.4,0,2.1-0.1c5.8-0.3,11.5-1.8,16.5-4.5
		c0.4,1,0.8,2,1.2,3.1c-4.7,2.4-9.8,3.9-15.2,4.5c-1.6,0.2-3.1,0.3-4.7,0.3c-1.6,0-3.2-0.1-4.7-0.3
		C-390.1,427.1-395.4,425.5-400.2,423z"/>
	<path class="st0" d="M-357.4,363.2c0.3,0.3,0.7,0.5,1.1,0.5c0.4,0,0.8-0.2,1.1-0.5c0.6-0.6,0.6-1.6,0-2.2
		c-6.6-6.6-15.3-10.2-24.7-10.2c-0.9,0-1.5,0.7-1.5,1.5s0.7,1.5,1.5,1.5c1.6,0,3.1,0.2,4.6,0.4c5.2,0.8,10.1,2.8,14.3,5.9
		C-359.7,361.1-358.5,362.1-357.4,363.2z"/>
	<path class="st0" d="M-393.4,353.6c-4.1,1.7-7.9,4.3-11.1,7.5c-0.6,0.6-0.6,1.6,0,2.2c0.3,0.3,0.7,0.5,1.1,0.5
		c0.4,0,0.8-0.2,1.1-0.5c2.9-2.9,6.3-5.2,10.1-6.8c0.8-0.3,1.2-1.2,0.8-2S-392.6,353.2-393.4,353.6z"/>
</g>
</svg>
