<?xml version="1.0" encoding="utf-8"?>
<!-- Generator: Adobe Illustrator 19.0.0, SVG Export Plug-In . SVG Version: 6.00 Build 0)  -->
<svg version="1.1" id="Capa_1" xmlns="http://www.w3.org/2000/svg" xmlns:xlink="http://www.w3.org/1999/xlink" x="0px" y="0px"
	 viewBox="0 0 100 100" style="enable-background:new 0 0 100 100;" xml:space="preserve">
<style type="text/css">
	.st0{fill:#181818;}
	.st1{fill:none;stroke:#181818;stroke-miterlimit:10;}
	.st2{fill:#107AB3;stroke:#181818;stroke-miterlimit:10;}
	.st3{fill:#107AB3;}
</style>
<g id="Slider">
	<rect id="Bar" x="13" y="20" class="st0" width="2" height="30"/>
	<circle id="Toggle" class="st1" cx="13.9" cy="55" r="1.7"/>
	<rect id="Handle" x="11.1" y="33.8" class="st2" width="5.9" height="2.5"/>
</g>
<g id="Slider_1_">
	<rect id="Bar_1_" x="23" y="20" class="st0" width="2" height="30"/>
	<circle id="Toggle_1_" class="st1" cx="23.9" cy="55" r="1.7"/>
	<rect id="Handle_1_" x="21.1" y="33.8" class="st2" width="5.9" height="2.5"/>
</g>
<g id="Slider_3_">
	<rect id="Bar_3_" x="33" y="20" class="st0" width="2" height="30"/>
	<circle id="Toggle_3_" class="st1" cx="33.9" cy="55" r="1.7"/>
	<rect id="Handle_3_" x="31.1" y="33.8" class="st2" width="5.9" height="2.5"/>
</g>
<g id="Slider_2_">
	<rect id="Bar_2_" x="43" y="20" class="st0" width="2" height="30"/>
	<circle id="Toggle_2_" class="st1" cx="43.9" cy="55" r="1.7"/>
	<rect id="Handle_2_" x="41.1" y="33.8" class="st2" width="5.9" height="2.5"/>
</g>
<g id="Slider_7_">
	<rect id="Bar_7_" x="53" y="20" class="st0" width="2" height="30"/>
	<circle id="Toggle_7_" class="st1" cx="53.9" cy="55" r="1.7"/>
	<rect id="Handle_7_" x="51.1" y="33.8" class="st2" width="5.9" height="2.5"/>
</g>
<g id="Slider_6_">
	<rect id="Bar_6_" x="63" y="20" class="st0" width="2" height="30"/>
	<circle id="Toggle_6_" class="st1" cx="63.9" cy="55" r="1.7"/>
	<rect id="Handle_6_" x="61.1" y="33.8" class="st2" width="5.9" height="2.5"/>
</g>
<g id="Slider_5_">
	<rect id="Bar_5_" x="73" y="20" class="st0" width="2" height="30"/>
	<circle id="Toggle_5_" class="st1" cx="73.9" cy="55" r="1.7"/>
	<rect id="Handle_5_" x="71.1" y="33.8" class="st2" width="5.9" height="2.5"/>
</g>
<g id="Slider_4_">
	<rect id="Bar_4_" x="83" y="20" class="st0" width="2" height="30"/>
	<circle id="Toggle_4_" class="st1" cx="83.9" cy="55" r="1.7"/>
	<rect id="Handle_4_" x="81.1" y="33.8" class="st2" width="5.9" height="2.5"/>
</g>
<g id="Slider_15_">
	<rect id="Bar_15_" x="88" y="65" class="st0" width="2" height="30"/>
	<circle id="Toggle_15_" class="st1" cx="89.1" cy="59.7" r="1.7"/>
	<rect id="Handle_15_" x="86.1" y="78.4" class="st2" width="5.9" height="2.5"/>
</g>
<g id="Slider_14_">
	<rect id="Bar_14_" x="78" y="65" class="st0" width="2" height="30"/>
	<circle id="Toggle_14_" class="st1" cx="79.1" cy="59.7" r="1.7"/>
	<rect id="Handle_14_" x="76.1" y="78.4" class="st2" width="5.9" height="2.5"/>
</g>
<g id="Slider_13_">
	<rect id="Bar_13_" x="68" y="65" class="st0" width="2" height="30"/>
	<circle id="Toggle_13_" class="st1" cx="69.1" cy="59.7" r="1.7"/>
	<rect id="Handle_13_" x="66.1" y="78.4" class="st2" width="5.9" height="2.5"/>
</g>
<g id="Slider_12_">
	<rect id="Bar_12_" x="58" y="65" class="st0" width="2" height="30"/>
	<circle id="Toggle_12_" class="st1" cx="59.1" cy="59.7" r="1.7"/>
	<rect id="Handle_12_" x="56.1" y="78.4" class="st2" width="5.9" height="2.5"/>
</g>
<g id="Slider_11_">
	<rect id="Bar_11_" x="48" y="65" class="st0" width="2" height="30"/>
	<circle id="Toggle_11_" class="st1" cx="49.1" cy="59.7" r="1.7"/>
	<rect id="Handle_11_" x="46.1" y="78.4" class="st2" width="5.9" height="2.5"/>
</g>
<g id="Slider_10_">
	<rect id="Bar_10_" x="38" y="65" class="st0" width="2" height="30"/>
	<circle id="Toggle_10_" class="st1" cx="39.1" cy="59.7" r="1.7"/>
	<rect id="Handle_10_" x="36.1" y="78.4" class="st2" width="5.9" height="2.5"/>
</g>
<g id="Slider_9_">
	<rect id="Bar_9_" x="28" y="65" class="st0" width="2" height="30"/>
	<circle id="Toggle_9_" class="st1" cx="29.1" cy="59.7" r="1.7"/>
	<rect id="Handle_9_" x="26.1" y="78.4" class="st2" width="5.9" height="2.5"/>
</g>
<g id="Slider_8_">
	<rect id="Bar_8_" x="18" y="65" class="st0" width="2" height="30"/>
	<circle id="Toggle_8_" class="st1" cx="19.1" cy="59.7" r="1.7"/>
	<rect id="Handle_8_" x="16.1" y="78.4" class="st2" width="5.9" height="2.5"/>
</g>
<g id="Control">
	<path id="Frame" class="st0" d="M15,0v9.4c0,3.1,2.4,5.6,5.4,5.6h58.9c3.1,0,5.7-2.5,5.7-5.6V0H15z M60,10.3c0,0.9-0.8,1.7-1.7,1.7
		H21.7c-0.9,0-1.7-0.8-1.7-1.7V4.7C20,3.8,20.8,3,21.7,3h36.6C59.2,3,60,3.8,60,4.7V10.3z"/>
	<g id="Toggle_x5F_Notes">
		<path id="XMLID_8_" class="st0" d="M57,11.3H42.9c-0.9,0-1.7-0.8-1.7-1.7V5.4c0-0.9,0.8-1.7,1.7-1.7H57c0.9,0,1.7,0.8,1.7,1.7v4.1
			C58.7,10.5,57.9,11.3,57,11.3z"/>
		<path id="XMLID_14_" class="st0" d="M37.1,11.3H23c-0.9,0-1.7-0.8-1.7-1.7V5.4c0-0.9,0.8-1.7,1.7-1.7h14.1c0.9,0,1.7,0.8,1.7,1.7
			v4.1C38.8,10.5,38,11.3,37.1,11.3z"/>
		<path id="XMLID_9_" class="st3" d="M32,4.5c0,0-0.1-0.1-0.2,0l-3.8,0.9c-0.1,0-0.2,0.1-0.2,0.2v3c-0.2-0.2-0.5-0.3-0.7-0.3
			c-0.6,0-1.1,0.5-1.1,1.2c0,0.6,0.5,1.2,1.1,1.2s1.1-0.5,1.1-1.2V6.7l3.4-0.8v1.8c-0.2-0.2-0.5-0.3-0.7-0.3c-0.6,0-1.1,0.5-1.1,1.2
			c0,0.6,0.5,1.2,1.1,1.2S32,9.3,32,8.6v-4C32,4.6,32,4.5,32,4.5z"/>
		<g id="XMLID_20_">
			<path id="XMLID_21_" class="st3" d="M46.1,9.8c0.5,0,1-0.4,1-1V6.3h2v2.4c-0.1-0.1-0.3-0.1-0.4-0.1c-0.5,0-1,0.4-1,1
				c0,0.5,0.4,1,1,1c0.5,0,1-0.4,1-1V6.3h2V8c-0.1-0.1-0.3-0.1-0.4-0.1c-0.5,0-1,0.4-1,1s0.4,1,1,1c0.5,0,1-0.4,1-1V6.3h2v2.4
				c-0.1-0.1-0.3-0.1-0.4-0.1c-0.5,0-1,0.4-1,1c0,0.5,0.4,1,1,1c0.5,0,1-0.4,1-1V6V4.8c0-0.1-0.1-0.2-0.2-0.2h-7.5
				c-0.1,0-0.2,0.1-0.2,0.2V6v2c-0.1-0.1-0.3-0.1-0.4-0.1c-0.5,0-1,0.4-1,1C45.1,9.4,45.5,9.8,46.1,9.8z M54,5.8h-7V5h7V5.8z"/>
		</g>
	</g>
	<circle id="XMLID_2_" class="st3" cx="72" cy="7.9" r="4.3"/>
</g>
</svg>
