<?xml version="1.0" encoding="utf-8"?>
<!-- Generator: Adobe Illustrator 19.0.0, SVG Export Plug-In . SVG Version: 6.00 Build 0) -->
<svg version="1.1" id="Capa_1" xmlns="http://www.w3.org/2000/svg" xmlns:xlink="http://www.w3.org/1999/xlink" x="0px" y="0px" viewBox="0 0 100 100" style="enable-background:new 0 0 100 100;" xml:space="preserve">
	<style type="text/css">
		.st0 {
			stroke: #000000;
			stroke-miterlimit: 10;
		}
		.st1 {
			fill: #791FC6;
		}
		.st2 {
			fill: #791FC6;
			stroke: #000000;
			stroke-miterlimit: 10;
		}
		.st3 {
			fill: none;
			stroke: #000000;
			stroke-miterlimit: 10;
		}
	</style>
	<g id="XMLID_6_">
		<rect id="XMLID_5_" x="12.4" y="2.6" class="st0" width="15" height="14.8"/>
		<path id="XMLID_10_" class="st1" d="M21.6,14.4h-3.4v-0.9h1.1V6.5h-1.1V5.6h3.4v0.9h-1.1v6.9h1.1V14.4z"/>
	</g>
	<g id="XMLID_25_">
		<rect id="XMLID_1_" x="32.4" y="2.6" class="st2" width="15" height="14.8"/>
		<g id="XMLID_2_">
			<path id="XMLID_12_" d="M39.9,14.5h-3.5v-0.9h1.2v-7h-1.2V5.6h3.5v0.9h-1.2v7h1.2V14.5z"/>
			<path id="XMLID_14_" d="M43.4,14.5h-3.5v-0.9h1.2v-7h-1.2V5.6h3.5v0.9h-1.2v7h1.2V14.5z"/>
		</g>
	</g>
	<g id="XMLID_26_">
		<rect id="XMLID_3_" x="52.5" y="2.6" class="st2" width="15" height="14.8"/>
		<g id="XMLID_8_">
			<path id="XMLID_7_" d="M58.3,14.4h-3.4v-0.9H56V6.6h-1.1V5.7h3.4v0.9h-1.1v6.9h1.1V14.4z"/>
			<path id="XMLID_17_" d="M61.7,14.4h-3.4v-0.9h1.1V6.6h-1.1V5.7h3.4v0.9h-1.1v6.9h1.1V14.4z"/>
			<path id="XMLID_19_" d="M65.2,14.4h-3.4v-0.9h1.1V6.6h-1.1V5.7h3.4v0.9H64v6.9h1.1V14.4z"/>
		</g>
	</g>
	<g id="XMLID_27_">
		<rect id="XMLID_4_" x="72.4" y="2.6" class="st2" width="15" height="14.8"/>
		<g id="XMLID_9_">
			<path id="XMLID_21_" d="M85.6,14.4H74.3v-0.9h1.1V6.5h-1.1V5.6h11.3v0.9h-9v6.9h9V14.4z"/>
			<path id="XMLID_23_" d="M85.3,5.6l-3.2,8.7h-1.5l-3.2-8.7h1.2l2.7,7.7l2.7-7.7H85.3z"/>
		</g>
	</g>
	<circle id="XMLID_28_" class="st3" cx="11" cy="55.6" r="2.9"/>
	<circle id="XMLID_30_" class="st3" cx="22" cy="55.6" r="2.9"/>
	<circle id="XMLID_31_" class="st3" cx="33" cy="55.6" r="2.9"/>
	<circle id="XMLID_32_" class="st3" cx="44" cy="55.6" r="2.9"/>
	<circle id="XMLID_33_" class="st3" cx="56" cy="55.6" r="2.9"/>
	<circle id="XMLID_34_" class="st3" cx="67" cy="55.6" r="2.9"/>
	<circle id="XMLID_35_" class="st3" cx="78" cy="55.6" r="2.9"/>
	<circle id="XMLID_36_" class="st3" cx="89" cy="55.6" r="2.9"/>
</svg>
